<?xml version="1.0" standalone="no"?>
<!DOCTYPE svg PUBLIC "-//W3C//DTD SVG 20010904//EN"
 "http://www.w3.org/TR/2001/REC-SVG-20010904/DTD/svg10.dtd">
<svg version="1.0" xmlns="http://www.w3.org/2000/svg"
 width="2134.000000pt" height="2134.000000pt" viewBox="0 0 2134.000000 2134.000000"
 preserveAspectRatio="xMidYMid meet">
<metadata>
Created by potrace 1.14, written by Peter Selinger 2001-2017
</metadata>
<g transform="translate(0.000000,2134.000000) scale(0.100000,-0.100000)"
fill="#000000" stroke="none">
<path d="M7616 20788 c-76 -16 -146 -70 -184 -142 l-27 -51 -3 -494 c-3 -577
-4 -570 81 -655 85 -85 74 -84 647 -82 487 1 496 2 541 23 61 29 106 76 137
142 l24 53 0 497 c0 474 -1 498 -20 543 -29 65 -83 122 -145 149 -52 22 -54
23 -533 24 -265 0 -498 -3 -518 -7z"/>
<path d="M4850 20394 c-57 -25 -93 -68 -106 -127 -3 -12 -6 -162 -6 -333 0
-296 1 -314 21 -352 22 -43 69 -85 111 -97 38 -12 650 -9 681 3 43 17 97 70
109 107 13 39 17 647 5 687 -12 39 -54 87 -94 108 -35 18 -62 19 -362 19 -268
0 -330 -2 -359 -15z"/>
<path d="M1715 19959 c-223 -21 -414 -192 -459 -410 -10 -50 -12 -254 -11
-944 2 -951 0 -907 56 -1016 69 -136 206 -243 353 -273 47 -10 262 -13 946
-12 l885 2 67 26 c185 70 307 214 344 403 3 17 6 422 6 900 0 774 -1 877 -16
934 -47 183 -192 329 -376 376 -58 15 -152 17 -900 19 -459 0 -862 -2 -895 -5z"/>
<path d="M5931 18318 c-124 -21 -231 -120 -256 -237 -4 -18 -7 -237 -7 -485 0
-438 1 -453 22 -509 28 -75 102 -149 175 -176 51 -19 79 -20 522 -21 l468 0
60 29 c72 35 125 85 156 149 l24 47 0 480 c0 264 -2 489 -5 500 -8 30 -48 104
-68 124 -38 40 -105 80 -154 92 -58 13 -863 20 -937 7z"/>
<path d="M9158 18129 c-152 -42 -271 -138 -336 -272 -22 -45 -45 -103 -50
-128 -5 -28 -8 -415 -7 -935 1 -979 -3 -909 63 -1039 36 -72 143 -175 222
-213 117 -58 123 -58 1075 -57 802 2 874 3 920 19 202 71 337 224 371 420 4
22 7 427 7 900 0 952 1 924 -65 1048 -69 131 -205 231 -358 264 -19 4 -428 8
-908 9 -783 0 -879 -1 -934 -16z"/>
<path d="M12867 16324 c-1 -1 -101 -5 -222 -9 -121 -3 -247 -8 -280 -10 -33
-2 -116 -7 -185 -11 -181 -9 -178 -9 -184 -15 -3 -3 -6 -174 -6 -380 -1 -405
-5 -439 -57 -543 -51 -100 -112 -165 -215 -228 -127 -78 -7 -73 -1561 -74
-1487 -2 -1442 -4 -1552 48 -93 43 -141 82 -217 176 -28 34 -65 113 -84 177
-15 52 -18 106 -18 417 l-1 358 -25 1 c-27 0 -178 -1 -690 -6 -179 -2 -330 -4
-336 -4 -6 -1 -41 -29 -78 -62 -72 -66 -154 -183 -215 -306 l-39 -78 3 -385
c1 -212 3 -387 4 -390 0 -3 144 -5 319 -6 265 -1 327 -4 381 -18 132 -35 234
-107 272 -190 18 -39 19 -82 19 -771 0 -466 -4 -743 -10 -767 -15 -54 -91
-132 -163 -168 -110 -54 -178 -62 -514 -63 -346 -1 -324 7 -278 -92 56 -118
178 -208 325 -239 75 -16 22 -16 2825 -21 1040 -2 2356 -4 2925 -5 569 -1
1067 -6 1105 -11 347 -45 689 -239 879 -498 116 -159 213 -394 241 -586 3 -23
8 -52 11 -65 6 -32 6 -201 0 -232 -3 -13 -8 -41 -11 -63 -15 -111 -76 -286
-137 -395 -63 -113 -159 -225 -269 -312 -110 -88 -333 -181 -499 -208 -41 -7
-84 -14 -95 -16 -62 -13 -627 -15 -4045 -19 -2065 -2 -3766 -6 -3780 -9 -14
-3 -36 -7 -50 -10 -145 -26 -253 -77 -330 -155 -61 -61 -91 -117 -109 -199 -8
-39 -11 -1234 -11 -4465 0 -4801 -4 -4455 55 -4571 67 -132 221 -243 405 -291
162 -43 152 -43 2400 -39 3358 6 6170 14 6225 18 28 2 95 7 150 11 55 3 107 8
115 10 8 2 49 7 90 10 41 4 78 9 81 10 3 2 39 7 79 10 41 4 77 8 81 10 3 3 26
7 50 10 65 8 166 25 279 46 30 6 66 12 80 15 14 2 77 16 140 30 63 14 126 28
140 30 19 3 211 54 335 88 137 38 259 77 430 137 297 106 653 265 879 393 54
31 100 56 102 56 8 0 280 174 360 231 299 212 567 454 779 703 28 32 55 64 60
70 28 31 168 220 212 286 116 174 253 422 328 595 9 22 23 54 31 70 61 137
174 489 209 655 2 8 10 47 19 85 8 39 17 84 20 100 3 17 12 68 20 115 15 86
18 106 36 253 24 204 31 481 17 672 -5 55 -10 122 -12 149 -2 27 -7 68 -10 90
-4 23 -8 52 -10 66 -2 14 -6 44 -10 68 -4 23 -8 52 -10 65 -7 52 -26 161 -30
166 -2 4 -6 26 -10 50 -8 53 -73 313 -109 431 -21 72 -62 190 -121 350 -69
190 -248 552 -360 730 -223 356 -394 571 -669 845 -94 94 -187 184 -206 200
-98 83 -155 129 -257 207 l-111 85 101 100 c279 274 532 594 744 943 183 301
330 612 433 919 41 124 99 329 114 405 3 11 11 53 19 91 9 39 18 88 21 110 4
23 8 52 11 65 3 14 9 61 15 105 5 44 12 100 16 125 3 25 7 164 9 310 3 301 -4
409 -45 665 -22 132 -21 132 -44 226 -8 37 -17 78 -20 90 -3 13 -19 74 -36
134 -17 61 -32 117 -35 125 -7 29 -76 223 -106 298 -35 89 -46 114 -84 197
-27 59 -60 141 -72 180 -28 92 -217 412 -318 541 -160 204 -350 400 -519 539
-27 22 -54 45 -60 50 -20 19 -72 60 -100 80 -16 11 -40 29 -55 41 -90 72 -366
249 -516 331 -112 61 -407 206 -485 238 -151 63 -191 79 -305 122 -341 128
-847 271 -1197 337 -13 2 -63 12 -113 21 -49 10 -100 19 -112 21 -13 2 -35 6
-50 9 -16 3 -44 8 -63 11 -19 3 -46 7 -60 10 -34 6 -227 34 -270 39 -19 2 -71
9 -115 14 -44 6 -105 13 -135 16 -30 3 -71 8 -90 10 -63 7 -134 14 -210 20
-41 3 -95 8 -120 10 -25 3 -94 7 -155 11 -60 3 -126 7 -145 9 -120 12 -1162
28 -1173 19z m773 -973 c48 -26 91 -75 104 -121 10 -34 13 -134 12 -430 -2
-423 0 -413 -65 -477 -50 -50 -76 -53 -493 -53 -384 0 -385 0 -429 23 -24 13
-57 43 -74 66 l-30 43 0 417 0 418 29 41 c17 25 47 51 78 66 l49 24 397 -1
c315 -2 402 -5 422 -16z m-2969 -1216 c47 -24 78 -54 100 -98 18 -34 20 -61
20 -311 1 -251 0 -276 -18 -317 -24 -54 -70 -95 -124 -109 -26 -7 -139 -10
-314 -8 l-273 3 -43 30 c-23 17 -53 50 -66 74 -22 43 -23 51 -23 320 l0 276
26 51 c50 99 92 109 421 107 224 -1 265 -3 294 -18z m3657 -7181 c189 -34 419
-105 567 -174 463 -219 736 -566 824 -1050 11 -57 8 -435 -4 -505 -17 -106
-46 -228 -70 -300 -155 -461 -519 -775 -1050 -905 -66 -16 -140 -32 -165 -35
-25 -3 -63 -8 -85 -11 -55 -8 -3482 -7 -3525 1 -165 29 -297 109 -395 239 -56
76 -86 142 -104 236 -16 76 -17 176 -16 1000 1 503 5 930 9 949 46 225 225
415 445 472 77 20 109 21 781 34 146 3 357 7 470 10 113 2 322 7 465 10 143 3
375 8 515 11 140 3 343 7 450 9 486 8 835 17 839 21 2 2 8 1 13 -2 4 -3 21 -8
36 -10z"/>
<path d="M3810 16286 c-58 -15 -129 -64 -163 -113 -58 -84 -58 -86 -58 -593 0
-403 2 -471 16 -510 36 -100 114 -173 209 -195 36 -8 191 -12 516 -11 l465 2
50 24 c65 32 121 90 152 157 l25 55 1 467 c0 298 -4 480 -11 504 -25 89 -90
163 -177 203 -36 16 -82 18 -510 19 -327 2 -484 -1 -515 -9z"/>
<path d="M1357 15948 c-73 -10 -125 -48 -164 -120 -16 -30 -18 -63 -18 -343 0
-340 1 -344 63 -402 65 -60 73 -62 390 -63 311 -1 340 3 401 51 16 13 40 44
52 69 22 44 23 55 23 345 0 330 -2 345 -65 407 -57 55 -80 59 -370 61 -146 1
-287 -1 -312 -5z"/>
<path d="M6446 14713 c-93 -28 -156 -81 -203 -173 l-28 -55 -2 -450 c-3 -435
-2 -452 19 -518 26 -84 86 -151 173 -193 l60 -29 455 1 c315 0 467 4 496 12
95 27 178 111 212 214 16 48 18 98 17 488 -1 239 -5 451 -9 470 -22 92 -90
174 -182 218 l-59 27 -450 1 c-367 1 -459 -1 -499 -13z"/>
<path d="M2745 13838 c-139 -26 -288 -141 -352 -271 -62 -124 -61 -102 -61
-1049 0 -809 1 -868 19 -936 47 -184 191 -327 379 -377 85 -23 1775 -22 1861
0 104 27 169 65 244 140 90 90 137 181 151 292 13 105 8 1731 -6 1798 -38 189
-193 348 -386 399 -51 13 -172 15 -929 15 -505 -1 -891 -5 -920 -11z"/>
</g>
</svg>
